<svg width="425" height="135" viewBox="0 0 425 135" fill="none" xmlns="http://www.w3.org/2000/svg">
<rect y="12.7059" width="424.853" height="108" rx="6" fill="url(#paint0_linear)"/>
<path d="M157.875 41.625C157.875 41.025 158 40.4583 158.25 39.925C158.517 39.375 158.892 38.9 159.375 38.5C159.858 38.0833 160.442 37.75 161.125 37.5C161.825 37.25 162.617 37.125 163.5 37.125C164.35 37.125 165.108 37.25 165.775 37.5C166.458 37.75 167.033 38.1 167.5 38.55C167.983 39 168.35 39.5333 168.6 40.15C168.867 40.75 169 41.4083 169 42.125L165.5 42.375C165.5 41.7417 165.325 41.25 164.975 40.9C164.625 40.55 164.133 40.375 163.5 40.375C162.933 40.375 162.475 40.5333 162.125 40.85C161.792 41.15 161.625 41.4917 161.625 41.875C161.625 42.2583 161.817 42.55 162.2 42.75C162.583 42.95 163.058 43.1417 163.625 43.325C164.208 43.4917 164.833 43.675 165.5 43.875C166.167 44.075 166.783 44.3583 167.35 44.725C167.933 45.0917 168.417 45.575 168.8 46.175C169.183 46.775 169.375 47.55 169.375 48.5C169.375 49.1333 169.242 49.7333 168.975 50.3C168.725 50.85 168.35 51.3333 167.85 51.75C167.35 52.1667 166.733 52.5 166 52.75C165.267 53 164.433 53.125 163.5 53.125C162.6 53.125 161.792 53 161.075 52.75C160.358 52.5 159.75 52.15 159.25 51.7C158.767 51.2333 158.392 50.6917 158.125 50.075C157.875 49.4417 157.75 48.75 157.75 48L161.25 47.75C161.25 49.1667 162 49.875 163.5 49.875C164.2 49.875 164.725 49.7167 165.075 49.4C165.442 49.0667 165.625 48.6833 165.625 48.25C165.625 47.85 165.433 47.5417 165.05 47.325C164.667 47.1083 164.183 46.9083 163.6 46.725C163.033 46.5417 162.417 46.35 161.75 46.15C161.083 45.95 160.458 45.675 159.875 45.325C159.308 44.9583 158.833 44.4833 158.45 43.9C158.067 43.3167 157.875 42.5583 157.875 41.625ZM182.01 49.625C181.86 50.0917 181.635 50.5417 181.335 50.975C181.035 51.4083 180.66 51.8 180.21 52.15C179.76 52.4833 179.235 52.75 178.635 52.95C178.051 53.15 177.385 53.25 176.635 53.25C175.851 53.25 175.11 53.1 174.41 52.8C173.726 52.4833 173.118 52.0583 172.585 51.525C172.068 50.975 171.651 50.3417 171.335 49.625C171.035 48.8917 170.885 48.1 170.885 47.25C170.885 46.4 171.035 45.6167 171.335 44.9C171.651 44.1667 172.076 43.5333 172.61 43C173.143 42.45 173.76 42.025 174.46 41.725C175.176 41.4083 175.943 41.25 176.76 41.25C177.543 41.25 178.276 41.3917 178.96 41.675C179.643 41.9583 180.235 42.3667 180.735 42.9C181.251 43.4167 181.651 44.05 181.935 44.8C182.235 45.5333 182.385 46.35 182.385 47.25C182.385 47.3833 182.376 47.5167 182.36 47.65C182.343 47.7667 182.326 47.8833 182.31 48C182.293 48.1333 182.276 48.2583 182.26 48.375H174.385C174.518 48.8083 174.785 49.2083 175.185 49.575C175.601 49.9417 176.126 50.125 176.76 50.125C177.076 50.125 177.343 50.0917 177.56 50.025C177.793 49.9417 177.976 49.85 178.11 49.75C178.276 49.65 178.41 49.525 178.51 49.375L182.01 49.625ZM176.76 44.375C176.126 44.375 175.601 44.5667 175.185 44.95C174.785 45.3167 174.518 45.75 174.385 46.25H179.135C179.001 45.75 178.726 45.3167 178.31 44.95C177.91 44.5667 177.393 44.375 176.76 44.375ZM185.251 44.625H183.501V41.75H184.376C185.293 41.75 185.751 41.2917 185.751 40.375V38.75H188.626V41.5H191.001V44.625H188.626V48.375C188.626 48.875 188.768 49.275 189.051 49.575C189.334 49.8583 189.693 50 190.126 50C190.259 50 190.376 50 190.476 50C190.576 49.9833 190.668 49.9667 190.751 49.95C190.834 49.9333 190.918 49.9083 191.001 49.875V52.875C190.868 52.925 190.718 52.9667 190.551 53C190.218 53.0833 189.826 53.125 189.376 53.125C188.059 53.125 187.043 52.7667 186.326 52.05C185.609 51.3167 185.251 50.2583 185.251 48.875V44.625ZM197.76 53.125C197.076 53.125 196.451 53.0167 195.885 52.8C195.318 52.5667 194.826 52.2417 194.41 51.825C194.01 51.3917 193.693 50.875 193.46 50.275C193.243 49.675 193.135 49 193.135 48.25V41.5H196.51V47.625C196.51 48.375 196.701 48.9583 197.085 49.375C197.485 49.7917 198.001 50 198.635 50C199.268 50 199.776 49.7917 200.16 49.375C200.56 48.9583 200.76 48.375 200.76 47.625V41.5H204.135V53H201.635L201.135 51.875C200.851 52.1083 200.535 52.3167 200.185 52.5C199.885 52.6667 199.526 52.8167 199.11 52.95C198.71 53.0667 198.26 53.125 197.76 53.125ZM212.889 41.375C213.605 41.375 214.289 41.525 214.939 41.825C215.589 42.1083 216.155 42.5167 216.639 43.05C217.139 43.5667 217.53 44.1833 217.814 44.9C218.114 45.6167 218.264 46.4 218.264 47.25C218.264 48.1 218.114 48.8833 217.814 49.6C217.53 50.3167 217.139 50.9417 216.639 51.475C216.155 51.9917 215.589 52.4 214.939 52.7C214.289 52.9833 213.605 53.125 212.889 53.125C212.455 53.125 212.055 53.075 211.689 52.975C211.339 52.875 211.039 52.7583 210.789 52.625C210.489 52.475 210.23 52.3083 210.014 52.125V57H206.639V41.5H209.139L209.639 42.625C209.889 42.3917 210.18 42.1833 210.514 42C210.797 41.85 211.139 41.7083 211.539 41.575C211.939 41.4417 212.389 41.375 212.889 41.375ZM214.889 47.25C214.889 46.4333 214.647 45.775 214.164 45.275C213.68 44.7583 213.089 44.5 212.389 44.5C211.689 44.5 211.097 44.7583 210.614 45.275C210.13 45.775 209.889 46.4333 209.889 47.25C209.889 48.0667 210.13 48.7333 210.614 49.25C211.097 49.75 211.689 50 212.389 50C213.089 50 213.68 49.75 214.164 49.25C214.647 48.7333 214.889 48.0667 214.889 47.25ZM239.398 37.25L234.023 53H230.273L224.898 37.25H228.648L232.148 48.125L235.648 37.25H239.398ZM245.013 41.25C245.696 41.25 246.329 41.3667 246.913 41.6C247.496 41.8333 247.996 42.1667 248.413 42.6C248.846 43.0167 249.179 43.5167 249.413 44.1C249.646 44.6833 249.763 45.3167 249.763 46V53H247.263L246.763 51.875C246.479 52.1083 246.163 52.3167 245.813 52.5C245.513 52.6667 245.154 52.8167 244.738 52.95C244.338 53.0667 243.888 53.125 243.388 53.125C242.138 53.125 241.179 52.825 240.513 52.225C239.846 51.6083 239.513 50.825 239.513 49.875C239.513 49.3083 239.621 48.7917 239.838 48.325C240.071 47.8417 240.454 47.4333 240.988 47.1C241.521 46.75 242.221 46.4833 243.088 46.3C243.971 46.1 245.071 46 246.388 46C246.388 45.4333 246.246 45 245.963 44.7C245.679 44.4 245.321 44.25 244.888 44.25C244.571 44.25 244.313 44.3167 244.113 44.45C243.929 44.5667 243.779 44.6917 243.663 44.825C243.529 44.9917 243.438 45.175 243.388 45.375L240.013 45.125C240.113 44.5583 240.288 44.0417 240.538 43.575C240.788 43.0917 241.113 42.6833 241.513 42.35C241.929 42 242.429 41.7333 243.013 41.55C243.596 41.35 244.263 41.25 245.013 41.25ZM244.263 50.625C244.896 50.625 245.404 50.4333 245.788 50.05C246.188 49.65 246.388 49.1333 246.388 48.5V48C245.671 48 245.079 48.0417 244.613 48.125C244.163 48.1917 243.804 48.2917 243.538 48.425C243.288 48.5583 243.113 48.7167 243.013 48.9C242.929 49.0833 242.888 49.2833 242.888 49.5C242.888 49.8167 243.004 50.0833 243.238 50.3C243.488 50.5167 243.829 50.625 244.263 50.625ZM257.896 41.375C258.046 41.375 258.18 41.3833 258.296 41.4C258.43 41.4167 258.538 41.4333 258.621 41.45C258.721 41.4667 258.813 41.4833 258.896 41.5V45C258.796 44.9667 258.68 44.925 258.546 44.875C258.43 44.8417 258.296 44.8167 258.146 44.8C257.996 44.7667 257.83 44.75 257.646 44.75C257.013 44.75 256.496 44.9583 256.096 45.375C255.713 45.7917 255.521 46.375 255.521 47.125V53H252.146V41.5H254.646L255.146 42.75C255.346 42.5 255.588 42.275 255.871 42.075C256.105 41.8917 256.388 41.7333 256.721 41.6C257.071 41.45 257.463 41.375 257.896 41.375ZM264.143 53H260.768V41.5H264.143V53ZM260.643 38.375C260.643 37.875 260.826 37.4417 261.193 37.075C261.576 36.6917 262.018 36.5 262.518 36.5C263.018 36.5 263.451 36.6917 263.818 37.075C264.201 37.4417 264.393 37.875 264.393 38.375C264.393 38.875 264.201 39.3167 263.818 39.7C263.451 40.0667 263.018 40.25 262.518 40.25C262.018 40.25 261.576 40.0667 261.193 39.7C260.826 39.3167 260.643 38.875 260.643 38.375ZM271.893 41.25C272.576 41.25 273.209 41.3667 273.793 41.6C274.376 41.8333 274.876 42.1667 275.293 42.6C275.726 43.0167 276.059 43.5167 276.293 44.1C276.526 44.6833 276.643 45.3167 276.643 46V53H274.143L273.643 51.875C273.359 52.1083 273.043 52.3167 272.693 52.5C272.393 52.6667 272.034 52.8167 271.618 52.95C271.218 53.0667 270.768 53.125 270.268 53.125C269.018 53.125 268.059 52.825 267.393 52.225C266.726 51.6083 266.393 50.825 266.393 49.875C266.393 49.3083 266.501 48.7917 266.718 48.325C266.951 47.8417 267.334 47.4333 267.868 47.1C268.401 46.75 269.101 46.4833 269.968 46.3C270.851 46.1 271.951 46 273.268 46C273.268 45.4333 273.126 45 272.843 44.7C272.559 44.4 272.201 44.25 271.768 44.25C271.451 44.25 271.193 44.3167 270.993 44.45C270.809 44.5667 270.659 44.6917 270.543 44.825C270.409 44.9917 270.318 45.175 270.268 45.375L266.893 45.125C266.993 44.5583 267.168 44.0417 267.418 43.575C267.668 43.0917 267.993 42.6833 268.393 42.35C268.809 42 269.309 41.7333 269.893 41.55C270.476 41.35 271.143 41.25 271.893 41.25ZM271.143 50.625C271.776 50.625 272.284 50.4333 272.668 50.05C273.068 49.65 273.268 49.1333 273.268 48.5V48C272.551 48 271.959 48.0417 271.493 48.125C271.043 48.1917 270.684 48.2917 270.418 48.425C270.168 48.5583 269.993 48.7167 269.893 48.9C269.809 49.0833 269.768 49.2833 269.768 49.5C269.768 49.8167 269.884 50.0833 270.118 50.3C270.368 50.5167 270.709 50.625 271.143 50.625ZM285.276 53.125C284.776 53.125 284.326 53.0667 283.926 52.95C283.526 52.8167 283.185 52.6667 282.901 52.5C282.568 52.3167 282.276 52.1083 282.026 51.875L281.526 53H279.026V37.25H282.401V42.375C282.618 42.1917 282.876 42.025 283.176 41.875C283.426 41.7417 283.726 41.625 284.076 41.525C284.443 41.425 284.843 41.375 285.276 41.375C285.993 41.375 286.676 41.525 287.326 41.825C287.976 42.1083 288.543 42.5167 289.026 43.05C289.526 43.5667 289.918 44.1833 290.201 44.9C290.501 45.6167 290.651 46.4 290.651 47.25C290.651 48.1 290.501 48.8833 290.201 49.6C289.918 50.3167 289.526 50.9417 289.026 51.475C288.543 51.9917 287.976 52.4 287.326 52.7C286.676 52.9833 285.993 53.125 285.276 53.125ZM287.276 47.25C287.276 46.4333 287.035 45.775 286.551 45.275C286.068 44.7583 285.476 44.5 284.776 44.5C284.076 44.5 283.485 44.7583 283.001 45.275C282.518 45.775 282.276 46.4333 282.276 47.25C282.276 48.0667 282.518 48.7333 283.001 49.25C283.485 49.75 284.076 50 284.776 50C285.476 50 286.068 49.75 286.551 49.25C287.035 48.7333 287.276 48.0667 287.276 47.25ZM296.024 53H292.649V37.25H296.024V53ZM309.158 49.625C309.008 50.0917 308.783 50.5417 308.483 50.975C308.183 51.4083 307.808 51.8 307.358 52.15C306.908 52.4833 306.383 52.75 305.783 52.95C305.2 53.15 304.533 53.25 303.783 53.25C303 53.25 302.258 53.1 301.558 52.8C300.875 52.4833 300.267 52.0583 299.733 51.525C299.217 50.975 298.8 50.3417 298.483 49.625C298.183 48.8917 298.033 48.1 298.033 47.25C298.033 46.4 298.183 45.6167 298.483 44.9C298.8 44.1667 299.225 43.5333 299.758 43C300.292 42.45 300.908 42.025 301.608 41.725C302.325 41.4083 303.092 41.25 303.908 41.25C304.692 41.25 305.425 41.3917 306.108 41.675C306.792 41.9583 307.383 42.3667 307.883 42.9C308.4 43.4167 308.8 44.05 309.083 44.8C309.383 45.5333 309.533 46.35 309.533 47.25C309.533 47.3833 309.525 47.5167 309.508 47.65C309.492 47.7667 309.475 47.8833 309.458 48C309.442 48.1333 309.425 48.2583 309.408 48.375H301.533C301.667 48.8083 301.933 49.2083 302.333 49.575C302.75 49.9417 303.275 50.125 303.908 50.125C304.225 50.125 304.492 50.0917 304.708 50.025C304.942 49.9417 305.125 49.85 305.258 49.75C305.425 49.65 305.558 49.525 305.658 49.375L309.158 49.625ZM303.908 44.375C303.275 44.375 302.75 44.5667 302.333 44.95C301.933 45.3167 301.667 45.75 301.533 46.25H306.283C306.15 45.75 305.875 45.3167 305.458 44.95C305.058 44.5667 304.542 44.375 303.908 44.375ZM314.149 49.25C314.216 49.6333 314.374 49.9417 314.624 50.175C314.874 50.3917 315.216 50.5 315.649 50.5C316.083 50.5 316.416 50.4 316.649 50.2C316.899 49.9833 317.024 49.75 317.024 49.5C317.024 49.3 316.874 49.1417 316.574 49.025C316.291 48.8917 315.933 48.7667 315.499 48.65C315.066 48.5167 314.591 48.3667 314.074 48.2C313.574 48.0333 313.108 47.8167 312.674 47.55C312.241 47.2667 311.874 46.9 311.574 46.45C311.291 46 311.149 45.4333 311.149 44.75C311.149 44.2833 311.249 43.8417 311.449 43.425C311.649 42.9917 311.933 42.6167 312.299 42.3C312.683 41.9833 313.141 41.7333 313.674 41.55C314.224 41.35 314.841 41.25 315.524 41.25C317.024 41.25 318.166 41.5833 318.949 42.25C319.733 42.9167 320.216 43.75 320.399 44.75L317.149 45C317.083 44.75 316.933 44.525 316.699 44.325C316.466 44.1083 316.158 44 315.774 44C315.391 44 315.108 44.0833 314.924 44.25C314.741 44.4167 314.649 44.625 314.649 44.875C314.649 45.0917 314.791 45.2583 315.074 45.375C315.374 45.4917 315.741 45.6167 316.174 45.75C316.608 45.8667 317.074 46.0083 317.574 46.175C318.091 46.3417 318.566 46.5667 318.999 46.85C319.433 47.1167 319.791 47.475 320.074 47.925C320.374 48.375 320.524 48.9417 320.524 49.625C320.524 50.0917 320.416 50.5417 320.199 50.975C319.999 51.4083 319.699 51.8 319.299 52.15C318.899 52.4833 318.408 52.75 317.824 52.95C317.258 53.15 316.616 53.25 315.899 53.25C314.333 53.25 313.149 52.9083 312.349 52.225C311.566 51.5417 311.083 50.6333 310.899 49.5L314.149 49.25ZM169.331 62.6621V74H167.617V66.9775L164.383 74H163.302L160.059 66.9775V74H158.354V62.6621H159.786L163.838 71.3896L167.89 62.6621H169.331ZM174.903 65.8086C175.372 65.8086 175.8 65.8848 176.187 66.0371C176.579 66.1836 176.913 66.3857 177.188 66.6436C177.464 66.9014 177.678 67.2061 177.83 67.5576C177.982 67.9033 178.059 68.2812 178.059 68.6914V74H176.89L176.529 73.1914C176.371 73.3613 176.184 73.5107 175.967 73.6396C175.773 73.7568 175.53 73.8623 175.237 73.9561C174.944 74.0439 174.593 74.0879 174.183 74.0879C173.28 74.0879 172.589 73.8652 172.108 73.4199C171.634 72.9688 171.396 72.3828 171.396 71.6621C171.396 71.252 171.473 70.8828 171.625 70.5547C171.783 70.2207 172.05 69.9395 172.425 69.7109C172.806 69.4766 173.318 69.2949 173.963 69.166C174.613 69.0312 175.437 68.9639 176.433 68.9639V68.6914C176.433 68.2812 176.304 67.9531 176.046 67.707C175.788 67.4609 175.407 67.3379 174.903 67.3379C174.364 67.3379 173.972 67.4346 173.726 67.6279C173.479 67.8213 173.333 68.0557 173.286 68.3311H171.669C171.716 67.6104 172.018 67.0098 172.574 66.5293C173.131 66.0488 173.907 65.8086 174.903 65.8086ZM174.279 72.6465C174.965 72.6465 175.495 72.4707 175.87 72.1191C176.245 71.7676 176.433 71.3398 176.433 70.8359V70.3965C175.712 70.3965 175.129 70.4316 174.684 70.502C174.244 70.5664 173.898 70.6572 173.646 70.7744C173.395 70.8857 173.225 71.0264 173.137 71.1963C173.055 71.3604 173.014 71.5449 173.014 71.75C173.014 71.9785 173.122 72.1865 173.339 72.374C173.556 72.5557 173.869 72.6465 174.279 72.6465ZM183.991 65.8086C184.53 65.8086 185.034 65.9111 185.503 66.1162C185.972 66.3213 186.382 66.6084 186.733 66.9775C187.091 67.3408 187.369 67.7744 187.568 68.2783C187.768 68.7822 187.867 69.3389 187.867 69.9482C187.867 70.5576 187.768 71.1172 187.568 71.627C187.369 72.1309 187.091 72.5674 186.733 72.9365C186.382 73.2998 185.972 73.584 185.503 73.7891C185.034 73.9883 184.53 74.0879 183.991 74.0879C183.604 74.0879 183.273 74.0439 182.998 73.9561C182.723 73.8682 182.491 73.7627 182.304 73.6396C182.087 73.5049 181.899 73.3555 181.741 73.1914V76.8828H180.124V65.8965H181.293L181.653 66.7139C181.812 66.5439 181.996 66.3916 182.207 66.2568C182.4 66.1514 182.644 66.0518 182.937 65.958C183.229 65.8584 183.581 65.8086 183.991 65.8086ZM183.903 72.5586C184.214 72.5586 184.51 72.4971 184.791 72.374C185.072 72.2451 185.321 72.0635 185.538 71.8291C185.755 71.5947 185.925 71.3193 186.048 71.0029C186.177 70.6865 186.241 70.335 186.241 69.9482C186.241 69.5615 186.177 69.21 186.048 68.8936C185.925 68.5771 185.755 68.3018 185.538 68.0674C185.321 67.833 185.072 67.6543 184.791 67.5312C184.51 67.4023 184.214 67.3379 183.903 67.3379C183.593 67.3379 183.294 67.4023 183.007 67.5312C182.726 67.6543 182.477 67.833 182.26 68.0674C182.049 68.3018 181.879 68.5801 181.75 68.9023C181.627 69.2188 181.565 69.5674 181.565 69.9482C181.565 70.335 181.627 70.6865 181.75 71.0029C181.879 71.3193 182.049 71.5947 182.26 71.8291C182.477 72.0635 182.726 72.2451 183.007 72.374C183.294 72.4971 183.593 72.5586 183.903 72.5586ZM192.631 65.8965H194.345L196.595 71.75L198.845 65.8965H200.559L197.131 74.5361C196.949 74.9932 196.771 75.374 196.595 75.6787C196.425 75.9893 196.237 76.2383 196.032 76.4258C195.833 76.6191 195.61 76.7568 195.364 76.8389C195.118 76.9268 194.84 76.9707 194.529 76.9707C194.459 76.9707 194.392 76.9678 194.327 76.9619C194.269 76.9561 194.21 76.9473 194.151 76.9355C194.093 76.9238 194.037 76.9062 193.984 76.8828V75.5293C194.441 75.5293 194.787 75.4326 195.021 75.2393C195.256 75.0518 195.42 74.8174 195.514 74.5361L195.786 73.7275L192.631 65.8965ZM207.484 69.9482C207.484 69.5615 207.42 69.21 207.291 68.8936C207.168 68.5771 207.004 68.3018 206.799 68.0674C206.594 67.833 206.354 67.6543 206.078 67.5312C205.803 67.4023 205.521 67.3379 205.234 67.3379C204.947 67.3379 204.666 67.4023 204.391 67.5312C204.115 67.6543 203.875 67.833 203.67 68.0674C203.465 68.3018 203.298 68.5801 203.169 68.9023C203.046 69.2188 202.984 69.5674 202.984 69.9482C202.984 70.335 203.046 70.6865 203.169 71.0029C203.298 71.3193 203.465 71.5947 203.67 71.8291C203.875 72.0635 204.115 72.2451 204.391 72.374C204.666 72.4971 204.947 72.5586 205.234 72.5586C205.521 72.5586 205.803 72.4971 206.078 72.374C206.354 72.2451 206.594 72.0635 206.799 71.8291C207.004 71.5947 207.168 71.3193 207.291 71.0029C207.42 70.6865 207.484 70.335 207.484 69.9482ZM209.102 69.9482C209.102 70.5576 209.002 71.1172 208.803 71.627C208.609 72.1309 208.334 72.5674 207.977 72.9365C207.625 73.2998 207.215 73.584 206.746 73.7891C206.277 73.9883 205.773 74.0879 205.234 74.0879C204.695 74.0879 204.191 73.9883 203.723 73.7891C203.254 73.584 202.841 73.2998 202.483 72.9365C202.132 72.5674 201.856 72.1309 201.657 71.627C201.464 71.123 201.367 70.5635 201.367 69.9482C201.367 69.3389 201.464 68.7822 201.657 68.2783C201.856 67.7744 202.132 67.3408 202.483 66.9775C202.841 66.6084 203.254 66.3213 203.723 66.1162C204.191 65.9111 204.695 65.8086 205.234 65.8086C205.773 65.8086 206.277 65.9111 206.746 66.1162C207.215 66.3213 207.625 66.6084 207.977 66.9775C208.334 67.3408 208.609 67.7744 208.803 68.2783C209.002 68.7822 209.102 69.3389 209.102 69.9482ZM214.059 74.0879C213.602 74.0879 213.177 74.0029 212.784 73.833C212.397 73.6572 212.055 73.417 211.756 73.1123C211.463 72.8018 211.231 72.4326 211.062 72.0049C210.897 71.5713 210.815 71.0967 210.815 70.5811V65.8965H212.433V70.5811C212.433 70.8564 212.482 71.1143 212.582 71.3545C212.688 71.5947 212.825 71.8057 212.995 71.9873C213.171 72.1631 213.373 72.3037 213.602 72.4092C213.83 72.5088 214.07 72.5586 214.322 72.5586C214.586 72.5586 214.838 72.5088 215.078 72.4092C215.318 72.3037 215.529 72.1631 215.711 71.9873C215.893 71.8057 216.036 71.5947 216.142 71.3545C216.253 71.1143 216.309 70.8564 216.309 70.5811V65.8965H217.926V74H216.757L216.396 73.1914C216.238 73.3613 216.051 73.5107 215.834 73.6396C215.641 73.7568 215.397 73.8623 215.104 73.9561C214.817 74.0439 214.469 74.0879 214.059 74.0879ZM223.674 65.8086C223.768 65.8086 223.844 65.8145 223.902 65.8262C223.967 65.8379 224.025 65.8496 224.078 65.8613C224.125 65.873 224.172 65.8848 224.219 65.8965V67.5225C224.172 67.5107 224.116 67.499 224.052 67.4873C223.993 67.4756 223.932 67.4639 223.867 67.4521C223.803 67.4346 223.738 67.4258 223.674 67.4258C223.398 67.4258 223.141 67.4814 222.9 67.5928C222.66 67.6982 222.449 67.8418 222.268 68.0234C222.092 68.2051 221.951 68.416 221.846 68.6562C221.746 68.8965 221.696 69.1484 221.696 69.4121V74H220.079V65.8965H221.248L221.608 66.7139C221.755 66.5439 221.928 66.3916 222.127 66.2568C222.297 66.1514 222.511 66.0518 222.769 65.958C223.026 65.8584 223.328 65.8086 223.674 65.8086ZM236.629 71.6621C236.494 71.9961 236.324 72.3096 236.119 72.6025C235.914 72.8955 235.668 73.1533 235.381 73.376C235.094 73.5986 234.76 73.7744 234.379 73.9033C234.004 74.0264 233.582 74.0879 233.113 74.0879C232.574 74.0879 232.07 73.9883 231.602 73.7891C231.133 73.584 230.723 73.2998 230.371 72.9365C230.02 72.5674 229.744 72.1309 229.545 71.627C229.346 71.123 229.246 70.5635 229.246 69.9482C229.246 69.3389 229.346 68.7822 229.545 68.2783C229.744 67.7744 230.014 67.3408 230.354 66.9775C230.693 66.6084 231.095 66.3213 231.558 66.1162C232.021 65.9111 232.51 65.8086 233.025 65.8086C233.541 65.8086 234.03 65.9111 234.493 66.1162C234.956 66.3213 235.357 66.6084 235.697 66.9775C236.037 67.3408 236.307 67.7744 236.506 68.2783C236.705 68.7822 236.805 69.3389 236.805 69.9482C236.805 70.042 236.799 70.1357 236.787 70.2295C236.775 70.3174 236.764 70.3936 236.752 70.458C236.74 70.54 236.729 70.6104 236.717 70.6689H230.951C230.975 70.9209 231.048 71.1611 231.171 71.3896C231.294 71.6182 231.446 71.8203 231.628 71.9961C231.815 72.166 232.038 72.3037 232.296 72.4092C232.554 72.5088 232.826 72.5586 233.113 72.5586C233.605 72.5586 233.995 72.4531 234.282 72.2422C234.575 72.0312 234.786 71.8379 234.915 71.6621H236.629ZM233.025 67.3379C232.486 67.3379 232.029 67.5225 231.654 67.8916C231.285 68.2549 231.051 68.7324 230.951 69.3242H235.275C235.182 68.7383 234.941 68.2607 234.555 67.8916C234.174 67.5225 233.664 67.3379 233.025 67.3379ZM242.386 65.8086C242.831 65.8086 243.25 65.8965 243.643 66.0723C244.041 66.248 244.387 66.4883 244.68 66.793C244.973 67.0977 245.204 67.4668 245.374 67.9004C245.544 68.3281 245.629 68.8027 245.629 69.3242V74H244.012V69.3242C244.012 69.0605 243.959 68.8086 243.854 68.5684C243.754 68.3281 243.616 68.1172 243.44 67.9355C243.265 67.7539 243.062 67.6104 242.834 67.5049C242.605 67.3936 242.365 67.3379 242.113 67.3379C241.838 67.3379 241.58 67.3936 241.34 67.5049C241.1 67.6104 240.889 67.7539 240.707 67.9355C240.531 68.1172 240.391 68.3281 240.285 68.5684C240.186 68.8027 240.136 69.0547 240.136 69.3242V74H238.519V65.8965H239.688L240.048 66.7139C240.206 66.5439 240.391 66.3916 240.602 66.2568C240.795 66.1514 241.038 66.0518 241.331 65.958C241.624 65.8584 241.976 65.8086 242.386 65.8086ZM254.717 65.8965L251.474 74H250.032L246.789 65.8965H248.503L250.753 71.75L253.003 65.8965H254.717ZM257.591 74H255.974V65.8965H257.591V74ZM256.782 64.6396C256.507 64.6396 256.272 64.5459 256.079 64.3584C255.886 64.165 255.789 63.9277 255.789 63.6465C255.789 63.3711 255.886 63.1396 256.079 62.9521C256.272 62.7588 256.507 62.6621 256.782 62.6621C257.058 62.6621 257.292 62.7588 257.485 62.9521C257.679 63.1396 257.775 63.3711 257.775 63.6465C257.775 63.9219 257.679 64.1562 257.485 64.3496C257.292 64.543 257.058 64.6396 256.782 64.6396ZM263.348 65.8086C263.441 65.8086 263.518 65.8145 263.576 65.8262C263.641 65.8379 263.699 65.8496 263.752 65.8613C263.799 65.873 263.846 65.8848 263.893 65.8965V67.5225C263.846 67.5107 263.79 67.499 263.726 67.4873C263.667 67.4756 263.605 67.4639 263.541 67.4521C263.477 67.4346 263.412 67.4258 263.348 67.4258C263.072 67.4258 262.814 67.4814 262.574 67.5928C262.334 67.6982 262.123 67.8418 261.941 68.0234C261.766 68.2051 261.625 68.416 261.52 68.6562C261.42 68.8965 261.37 69.1484 261.37 69.4121V74H259.753V65.8965H260.922L261.282 66.7139C261.429 66.5439 261.602 66.3916 261.801 66.2568C261.971 66.1514 262.185 66.0518 262.442 65.958C262.7 65.8584 263.002 65.8086 263.348 65.8086ZM270.906 69.9482C270.906 69.5615 270.842 69.21 270.713 68.8936C270.59 68.5771 270.426 68.3018 270.221 68.0674C270.016 67.833 269.775 67.6543 269.5 67.5312C269.225 67.4023 268.943 67.3379 268.656 67.3379C268.369 67.3379 268.088 67.4023 267.812 67.5312C267.537 67.6543 267.297 67.833 267.092 68.0674C266.887 68.3018 266.72 68.5801 266.591 68.9023C266.468 69.2188 266.406 69.5674 266.406 69.9482C266.406 70.335 266.468 70.6865 266.591 71.0029C266.72 71.3193 266.887 71.5947 267.092 71.8291C267.297 72.0635 267.537 72.2451 267.812 72.374C268.088 72.4971 268.369 72.5586 268.656 72.5586C268.943 72.5586 269.225 72.4971 269.5 72.374C269.775 72.2451 270.016 72.0635 270.221 71.8291C270.426 71.5947 270.59 71.3193 270.713 71.0029C270.842 70.6865 270.906 70.335 270.906 69.9482ZM272.523 69.9482C272.523 70.5576 272.424 71.1172 272.225 71.627C272.031 72.1309 271.756 72.5674 271.398 72.9365C271.047 73.2998 270.637 73.584 270.168 73.7891C269.699 73.9883 269.195 74.0879 268.656 74.0879C268.117 74.0879 267.613 73.9883 267.145 73.7891C266.676 73.584 266.263 73.2998 265.905 72.9365C265.554 72.5674 265.278 72.1309 265.079 71.627C264.886 71.123 264.789 70.5635 264.789 69.9482C264.789 69.3389 264.886 68.7822 265.079 68.2783C265.278 67.7744 265.554 67.3408 265.905 66.9775C266.263 66.6084 266.676 66.3213 267.145 66.1162C267.613 65.9111 268.117 65.8086 268.656 65.8086C269.195 65.8086 269.699 65.9111 270.168 66.1162C270.637 66.3213 271.047 66.6084 271.398 66.9775C271.756 67.3408 272.031 67.7744 272.225 68.2783C272.424 68.7822 272.523 69.3389 272.523 69.9482ZM278.104 65.8086C278.55 65.8086 278.969 65.8965 279.361 66.0723C279.76 66.248 280.105 66.4883 280.398 66.793C280.691 67.0977 280.923 67.4668 281.093 67.9004C281.263 68.3281 281.348 68.8027 281.348 69.3242V74H279.73V69.3242C279.73 69.0605 279.678 68.8086 279.572 68.5684C279.473 68.3281 279.335 68.1172 279.159 67.9355C278.983 67.7539 278.781 67.6104 278.553 67.5049C278.324 67.3936 278.084 67.3379 277.832 67.3379C277.557 67.3379 277.299 67.3936 277.059 67.5049C276.818 67.6104 276.607 67.7539 276.426 67.9355C276.25 68.1172 276.109 68.3281 276.004 68.5684C275.904 68.8027 275.854 69.0547 275.854 69.3242V74H274.237V65.8965H275.406L275.767 66.7139C275.925 66.5439 276.109 66.3916 276.32 66.2568C276.514 66.1514 276.757 66.0518 277.05 65.958C277.343 65.8584 277.694 65.8086 278.104 65.8086ZM291.604 65.8086C291.991 65.8086 292.352 65.8848 292.686 66.0371C293.02 66.1836 293.312 66.4033 293.564 66.6963C293.816 66.9834 294.016 67.335 294.162 67.751C294.314 68.1611 294.391 68.624 294.391 69.1396V74H292.773V69.1396C292.773 68.6006 292.618 68.167 292.308 67.8389C292.003 67.5049 291.648 67.3379 291.244 67.3379C290.834 67.3379 290.477 67.5049 290.172 67.8389C289.867 68.167 289.715 68.6006 289.715 69.1396V74H288.089V69.1396C288.089 68.6006 287.937 68.167 287.632 67.8389C287.327 67.5049 286.97 67.3379 286.56 67.3379C286.149 67.3379 285.792 67.5049 285.487 67.8389C285.183 68.167 285.03 68.6006 285.03 69.1396V74H283.413V65.8965H284.582L284.942 66.7139C285.089 66.5439 285.262 66.3916 285.461 66.2568C285.631 66.1514 285.839 66.0518 286.085 65.958C286.331 65.8584 286.609 65.8086 286.92 65.8086C287.307 65.8086 287.638 65.876 287.913 66.0107C288.188 66.1396 288.423 66.2832 288.616 66.4414C288.833 66.6348 289.018 66.8457 289.17 67.0742C289.17 67.0742 289.223 67.0098 289.328 66.8809C289.428 66.7578 289.58 66.6143 289.785 66.4502C289.99 66.2861 290.242 66.1396 290.541 66.0107C290.84 65.876 291.194 65.8086 291.604 65.8086ZM303.584 71.6621C303.449 71.9961 303.279 72.3096 303.074 72.6025C302.869 72.8955 302.623 73.1533 302.336 73.376C302.049 73.5986 301.715 73.7744 301.334 73.9033C300.959 74.0264 300.537 74.0879 300.068 74.0879C299.529 74.0879 299.025 73.9883 298.557 73.7891C298.088 73.584 297.678 73.2998 297.326 72.9365C296.975 72.5674 296.699 72.1309 296.5 71.627C296.301 71.123 296.201 70.5635 296.201 69.9482C296.201 69.3389 296.301 68.7822 296.5 68.2783C296.699 67.7744 296.969 67.3408 297.309 66.9775C297.648 66.6084 298.05 66.3213 298.513 66.1162C298.976 65.9111 299.465 65.8086 299.98 65.8086C300.496 65.8086 300.985 65.9111 301.448 66.1162C301.911 66.3213 302.312 66.6084 302.652 66.9775C302.992 67.3408 303.262 67.7744 303.461 68.2783C303.66 68.7822 303.76 69.3389 303.76 69.9482C303.76 70.042 303.754 70.1357 303.742 70.2295C303.73 70.3174 303.719 70.3936 303.707 70.458C303.695 70.54 303.684 70.6104 303.672 70.6689H297.906C297.93 70.9209 298.003 71.1611 298.126 71.3896C298.249 71.6182 298.401 71.8203 298.583 71.9961C298.771 72.166 298.993 72.3037 299.251 72.4092C299.509 72.5088 299.781 72.5586 300.068 72.5586C300.561 72.5586 300.95 72.4531 301.237 72.2422C301.53 72.0312 301.741 71.8379 301.87 71.6621H303.584ZM299.98 67.3379C299.441 67.3379 298.984 67.5225 298.609 67.8916C298.24 68.2549 298.006 68.7324 297.906 69.3242H302.23C302.137 68.7383 301.896 68.2607 301.51 67.8916C301.129 67.5225 300.619 67.3379 299.98 67.3379ZM309.341 65.8086C309.786 65.8086 310.205 65.8965 310.598 66.0723C310.996 66.248 311.342 66.4883 311.635 66.793C311.928 67.0977 312.159 67.4668 312.329 67.9004C312.499 68.3281 312.584 68.8027 312.584 69.3242V74H310.967V69.3242C310.967 69.0605 310.914 68.8086 310.809 68.5684C310.709 68.3281 310.571 68.1172 310.396 67.9355C310.22 67.7539 310.018 67.6104 309.789 67.5049C309.561 67.3936 309.32 67.3379 309.068 67.3379C308.793 67.3379 308.535 67.3936 308.295 67.5049C308.055 67.6104 307.844 67.7539 307.662 67.9355C307.486 68.1172 307.346 68.3281 307.24 68.5684C307.141 68.8027 307.091 69.0547 307.091 69.3242V74H305.474V65.8965H306.643L307.003 66.7139C307.161 66.5439 307.346 66.3916 307.557 66.2568C307.75 66.1514 307.993 66.0518 308.286 65.958C308.579 65.8584 308.931 65.8086 309.341 65.8086ZM316.987 71.3018C316.987 71.6592 317.107 71.958 317.348 72.1982C317.588 72.4385 317.887 72.5586 318.244 72.5586C318.303 72.5586 318.364 72.5557 318.429 72.5498C318.499 72.5439 318.563 72.5352 318.622 72.5234C318.681 72.5117 318.736 72.4941 318.789 72.4707V73.9121C318.719 73.9473 318.634 73.9766 318.534 74C318.353 74.0586 318.139 74.0879 317.893 74.0879C317.535 74.0879 317.201 74.0234 316.891 73.8945C316.586 73.7598 316.319 73.5723 316.091 73.332C315.862 73.0918 315.684 72.8018 315.555 72.4619C315.432 72.1221 315.37 71.7354 315.37 71.3018V67.4258H313.929V65.8965H314.562C314.872 65.8965 315.13 65.7969 315.335 65.5977C315.54 65.3926 315.643 65.1348 315.643 64.8242V63.7432H316.987V65.8965H318.789V67.4258H316.987V71.3018ZM331.656 65.8965L328.413 74H326.972L323.729 65.8965H325.442L327.692 71.75L329.942 65.8965H331.656ZM336.06 65.8086C336.528 65.8086 336.956 65.8848 337.343 66.0371C337.735 66.1836 338.069 66.3857 338.345 66.6436C338.62 66.9014 338.834 67.2061 338.986 67.5576C339.139 67.9033 339.215 68.2812 339.215 68.6914V74H338.046L337.686 73.1914C337.527 73.3613 337.34 73.5107 337.123 73.6396C336.93 73.7568 336.687 73.8623 336.394 73.9561C336.101 74.0439 335.749 74.0879 335.339 74.0879C334.437 74.0879 333.745 73.8652 333.265 73.4199C332.79 72.9688 332.553 72.3828 332.553 71.6621C332.553 71.252 332.629 70.8828 332.781 70.5547C332.939 70.2207 333.206 69.9395 333.581 69.7109C333.962 69.4766 334.475 69.2949 335.119 69.166C335.77 69.0312 336.593 68.9639 337.589 68.9639V68.6914C337.589 68.2812 337.46 67.9531 337.202 67.707C336.944 67.4609 336.563 67.3379 336.06 67.3379C335.521 67.3379 335.128 67.4346 334.882 67.6279C334.636 67.8213 334.489 68.0557 334.442 68.3311H332.825C332.872 67.6104 333.174 67.0098 333.73 66.5293C334.287 66.0488 335.063 65.8086 336.06 65.8086ZM335.436 72.6465C336.121 72.6465 336.651 72.4707 337.026 72.1191C337.401 71.7676 337.589 71.3398 337.589 70.8359V70.3965C336.868 70.3965 336.285 70.4316 335.84 70.502C335.4 70.5664 335.055 70.6572 334.803 70.7744C334.551 70.8857 334.381 71.0264 334.293 71.1963C334.211 71.3604 334.17 71.5449 334.17 71.75C334.17 71.9785 334.278 72.1865 334.495 72.374C334.712 72.5557 335.025 72.6465 335.436 72.6465ZM344.875 65.8086C344.969 65.8086 345.045 65.8145 345.104 65.8262C345.168 65.8379 345.227 65.8496 345.279 65.8613C345.326 65.873 345.373 65.8848 345.42 65.8965V67.5225C345.373 67.5107 345.317 67.499 345.253 67.4873C345.194 67.4756 345.133 67.4639 345.068 67.4521C345.004 67.4346 344.939 67.4258 344.875 67.4258C344.6 67.4258 344.342 67.4814 344.102 67.5928C343.861 67.6982 343.65 67.8418 343.469 68.0234C343.293 68.2051 343.152 68.416 343.047 68.6562C342.947 68.8965 342.897 69.1484 342.897 69.4121V74H341.28V65.8965H342.449L342.81 66.7139C342.956 66.5439 343.129 66.3916 343.328 66.2568C343.498 66.1514 343.712 66.0518 343.97 65.958C344.228 65.8584 344.529 65.8086 344.875 65.8086ZM348.47 74H346.853V65.8965H348.47V74ZM347.661 64.6396C347.386 64.6396 347.151 64.5459 346.958 64.3584C346.765 64.165 346.668 63.9277 346.668 63.6465C346.668 63.3711 346.765 63.1396 346.958 62.9521C347.151 62.7588 347.386 62.6621 347.661 62.6621C347.937 62.6621 348.171 62.7588 348.364 62.9521C348.558 63.1396 348.654 63.3711 348.654 63.6465C348.654 63.9219 348.558 64.1562 348.364 64.3496C348.171 64.543 347.937 64.6396 347.661 64.6396ZM353.778 65.8086C354.247 65.8086 354.675 65.8848 355.062 66.0371C355.454 66.1836 355.788 66.3857 356.063 66.6436C356.339 66.9014 356.553 67.2061 356.705 67.5576C356.857 67.9033 356.934 68.2812 356.934 68.6914V74H355.765L355.404 73.1914C355.246 73.3613 355.059 73.5107 354.842 73.6396C354.648 73.7568 354.405 73.8623 354.112 73.9561C353.819 74.0439 353.468 74.0879 353.058 74.0879C352.155 74.0879 351.464 73.8652 350.983 73.4199C350.509 72.9688 350.271 72.3828 350.271 71.6621C350.271 71.252 350.348 70.8828 350.5 70.5547C350.658 70.2207 350.925 69.9395 351.3 69.7109C351.681 69.4766 352.193 69.2949 352.838 69.166C353.488 69.0312 354.312 68.9639 355.308 68.9639V68.6914C355.308 68.2812 355.179 67.9531 354.921 67.707C354.663 67.4609 354.282 67.3379 353.778 67.3379C353.239 67.3379 352.847 67.4346 352.601 67.6279C352.354 67.8213 352.208 68.0557 352.161 68.3311H350.544C350.591 67.6104 350.893 67.0098 351.449 66.5293C352.006 66.0488 352.782 65.8086 353.778 65.8086ZM353.154 72.6465C353.84 72.6465 354.37 72.4707 354.745 72.1191C355.12 71.7676 355.308 71.3398 355.308 70.8359V70.3965C354.587 70.3965 354.004 70.4316 353.559 70.502C353.119 70.5664 352.773 70.6572 352.521 70.7744C352.27 70.8857 352.1 71.0264 352.012 71.1963C351.93 71.3604 351.889 71.5449 351.889 71.75C351.889 71.9785 351.997 72.1865 352.214 72.374C352.431 72.5557 352.744 72.6465 353.154 72.6465ZM362.954 74.0879C362.544 74.0879 362.192 74.0439 361.899 73.9561C361.606 73.8682 361.366 73.7627 361.179 73.6396C360.962 73.5049 360.774 73.3555 360.616 73.1914L360.256 74H359.087V62.6621H360.704V66.7139C360.862 66.5439 361.05 66.3916 361.267 66.2568C361.46 66.1514 361.694 66.0518 361.97 65.958C362.245 65.8584 362.573 65.8086 362.954 65.8086C363.493 65.8086 363.997 65.9111 364.466 66.1162C364.935 66.3213 365.345 66.6084 365.696 66.9775C366.054 67.3408 366.332 67.7744 366.531 68.2783C366.73 68.7822 366.83 69.3389 366.83 69.9482C366.83 70.5576 366.73 71.1172 366.531 71.627C366.332 72.1309 366.054 72.5674 365.696 72.9365C365.345 73.2998 364.935 73.584 364.466 73.7891C363.997 73.9883 363.493 74.0879 362.954 74.0879ZM362.866 67.3379C362.556 67.3379 362.26 67.4023 361.979 67.5312C361.697 67.6543 361.448 67.833 361.231 68.0674C361.015 68.3018 360.842 68.5801 360.713 68.9023C360.59 69.2188 360.528 69.5674 360.528 69.9482C360.528 70.335 360.59 70.6865 360.713 71.0029C360.842 71.3193 361.015 71.5947 361.231 71.8291C361.448 72.0635 361.697 72.2451 361.979 72.374C362.26 72.4971 362.556 72.5586 362.866 72.5586C363.177 72.5586 363.473 72.4971 363.754 72.374C364.041 72.2451 364.29 72.0635 364.501 71.8291C364.718 71.5947 364.888 71.3193 365.011 71.0029C365.14 70.6865 365.204 70.335 365.204 69.9482C365.204 69.5615 365.14 69.21 365.011 68.8936C364.888 68.5771 364.718 68.3018 364.501 68.0674C364.29 67.833 364.041 67.6543 363.754 67.5312C363.473 67.4023 363.177 67.3379 362.866 67.3379ZM370.249 74H368.632V62.6621H370.249V74ZM379.521 71.6621C379.387 71.9961 379.217 72.3096 379.012 72.6025C378.807 72.8955 378.561 73.1533 378.273 73.376C377.986 73.5986 377.652 73.7744 377.271 73.9033C376.896 74.0264 376.475 74.0879 376.006 74.0879C375.467 74.0879 374.963 73.9883 374.494 73.7891C374.025 73.584 373.615 73.2998 373.264 72.9365C372.912 72.5674 372.637 72.1309 372.438 71.627C372.238 71.123 372.139 70.5635 372.139 69.9482C372.139 69.3389 372.238 68.7822 372.438 68.2783C372.637 67.7744 372.906 67.3408 373.246 66.9775C373.586 66.6084 373.987 66.3213 374.45 66.1162C374.913 65.9111 375.402 65.8086 375.918 65.8086C376.434 65.8086 376.923 65.9111 377.386 66.1162C377.849 66.3213 378.25 66.6084 378.59 66.9775C378.93 67.3408 379.199 67.7744 379.398 68.2783C379.598 68.7822 379.697 69.3389 379.697 69.9482C379.697 70.042 379.691 70.1357 379.68 70.2295C379.668 70.3174 379.656 70.3936 379.645 70.458C379.633 70.54 379.621 70.6104 379.609 70.6689H373.844C373.867 70.9209 373.94 71.1611 374.063 71.3896C374.187 71.6182 374.339 71.8203 374.521 71.9961C374.708 72.166 374.931 72.3037 375.188 72.4092C375.446 72.5088 375.719 72.5586 376.006 72.5586C376.498 72.5586 376.888 72.4531 377.175 72.2422C377.468 72.0312 377.679 71.8379 377.808 71.6621H379.521ZM375.918 67.3379C375.379 67.3379 374.922 67.5225 374.547 67.8916C374.178 68.2549 373.943 68.7324 373.844 69.3242H378.168C378.074 68.7383 377.834 68.2607 377.447 67.8916C377.066 67.5225 376.557 67.3379 375.918 67.3379ZM382.58 71.3896C382.627 71.7471 382.765 72.0312 382.993 72.2422C383.222 72.4531 383.564 72.5586 384.021 72.5586C384.525 72.5586 384.892 72.4648 385.12 72.2773C385.349 72.084 385.463 71.8496 385.463 71.5742C385.463 71.334 385.354 71.1523 385.138 71.0293C384.921 70.9004 384.651 70.7949 384.329 70.7129C384.013 70.625 383.667 70.5371 383.292 70.4492C382.923 70.3555 382.58 70.2266 382.264 70.0625C381.947 69.8926 381.681 69.667 381.464 69.3857C381.247 69.1045 381.139 68.7236 381.139 68.2432C381.139 67.9092 381.203 67.5957 381.332 67.3027C381.467 67.0039 381.654 66.7432 381.895 66.5205C382.135 66.2979 382.425 66.125 382.765 66.002C383.11 65.873 383.5 65.8086 383.934 65.8086C384.883 65.8086 385.601 66.0371 386.087 66.4941C386.579 66.9512 386.852 67.5635 386.904 68.3311H385.278C385.231 68.0557 385.097 67.8213 384.874 67.6279C384.651 67.4346 384.338 67.3379 383.934 67.3379C383.523 67.3379 383.21 67.4316 382.993 67.6191C382.776 67.8066 382.668 68.0146 382.668 68.2432C382.668 68.4834 382.776 68.668 382.993 68.7969C383.21 68.9199 383.477 69.0225 383.793 69.1045C384.115 69.1865 384.461 69.2744 384.83 69.3682C385.199 69.4561 385.542 69.585 385.858 69.7549C386.181 69.9189 386.45 70.1445 386.667 70.4316C386.884 70.7129 386.992 71.0938 386.992 71.5742C386.992 72.2949 386.734 72.8955 386.219 73.376C385.703 73.8506 384.971 74.0879 384.021 74.0879C383.025 74.0879 382.278 73.8535 381.78 73.3848C381.282 72.916 381.01 72.251 380.963 71.3896H382.58ZM165.104 92.6621C164.969 92.9961 164.799 93.3096 164.594 93.6025C164.389 93.8955 164.143 94.1533 163.855 94.376C163.568 94.5986 163.234 94.7744 162.854 94.9033C162.479 95.0264 162.057 95.0879 161.588 95.0879C161.049 95.0879 160.545 94.9883 160.076 94.7891C159.607 94.584 159.197 94.2998 158.846 93.9365C158.494 93.5674 158.219 93.1309 158.02 92.627C157.82 92.123 157.721 91.5635 157.721 90.9482C157.721 90.3389 157.82 89.7822 158.02 89.2783C158.219 88.7744 158.488 88.3408 158.828 87.9775C159.168 87.6084 159.569 87.3213 160.032 87.1162C160.495 86.9111 160.984 86.8086 161.5 86.8086C162.016 86.8086 162.505 86.9111 162.968 87.1162C163.431 87.3213 163.832 87.6084 164.172 87.9775C164.512 88.3408 164.781 88.7744 164.98 89.2783C165.18 89.7822 165.279 90.3389 165.279 90.9482C165.279 91.042 165.273 91.1357 165.262 91.2295C165.25 91.3174 165.238 91.3936 165.227 91.458C165.215 91.54 165.203 91.6104 165.191 91.6689H159.426C159.449 91.9209 159.522 92.1611 159.646 92.3896C159.769 92.6182 159.921 92.8203 160.103 92.9961C160.29 93.166 160.513 93.3037 160.771 93.4092C161.028 93.5088 161.301 93.5586 161.588 93.5586C162.08 93.5586 162.47 93.4531 162.757 93.2422C163.05 93.0312 163.261 92.8379 163.39 92.6621H165.104ZM161.5 88.3379C160.961 88.3379 160.504 88.5225 160.129 88.8916C159.76 89.2549 159.525 89.7324 159.426 90.3242H163.75C163.656 89.7383 163.416 89.2607 163.029 88.8916C162.648 88.5225 162.139 88.3379 161.5 88.3379ZM170.14 86.8086C170.608 86.8086 171.036 86.8848 171.423 87.0371C171.815 87.1836 172.149 87.3857 172.425 87.6436C172.7 87.9014 172.914 88.2061 173.066 88.5576C173.219 88.9033 173.295 89.2812 173.295 89.6914V95H172.126L171.766 94.1914C171.607 94.3613 171.42 94.5107 171.203 94.6396C171.01 94.7568 170.767 94.8623 170.474 94.9561C170.181 95.0439 169.829 95.0879 169.419 95.0879C168.517 95.0879 167.825 94.8652 167.345 94.4199C166.87 93.9688 166.633 93.3828 166.633 92.6621C166.633 92.252 166.709 91.8828 166.861 91.5547C167.02 91.2207 167.286 90.9395 167.661 90.7109C168.042 90.4766 168.555 90.2949 169.199 90.166C169.85 90.0312 170.673 89.9639 171.669 89.9639V89.6914C171.669 89.2812 171.54 88.9531 171.282 88.707C171.024 88.4609 170.644 88.3379 170.14 88.3379C169.601 88.3379 169.208 88.4346 168.962 88.6279C168.716 88.8213 168.569 89.0557 168.522 89.3311H166.905C166.952 88.6104 167.254 88.0098 167.811 87.5293C168.367 87.0488 169.144 86.8086 170.14 86.8086ZM169.516 93.6465C170.201 93.6465 170.731 93.4707 171.106 93.1191C171.481 92.7676 171.669 92.3398 171.669 91.8359V91.3965C170.948 91.3965 170.365 91.4316 169.92 91.502C169.48 91.5664 169.135 91.6572 168.883 91.7744C168.631 91.8857 168.461 92.0264 168.373 92.1963C168.291 92.3604 168.25 92.5449 168.25 92.75C168.25 92.9785 168.358 93.1865 168.575 93.374C168.792 93.5557 169.105 93.6465 169.516 93.6465ZM176.529 92.3896C176.576 92.7471 176.714 93.0312 176.942 93.2422C177.171 93.4531 177.514 93.5586 177.971 93.5586C178.475 93.5586 178.841 93.4648 179.069 93.2773C179.298 93.084 179.412 92.8496 179.412 92.5742C179.412 92.334 179.304 92.1523 179.087 92.0293C178.87 91.9004 178.601 91.7949 178.278 91.7129C177.962 91.625 177.616 91.5371 177.241 91.4492C176.872 91.3555 176.529 91.2266 176.213 91.0625C175.896 90.8926 175.63 90.667 175.413 90.3857C175.196 90.1045 175.088 89.7236 175.088 89.2432C175.088 88.9092 175.152 88.5957 175.281 88.3027C175.416 88.0039 175.604 87.7432 175.844 87.5205C176.084 87.2979 176.374 87.125 176.714 87.002C177.06 86.873 177.449 86.8086 177.883 86.8086C178.832 86.8086 179.55 87.0371 180.036 87.4941C180.528 87.9512 180.801 88.5635 180.854 89.3311H179.228C179.181 89.0557 179.046 88.8213 178.823 88.6279C178.601 88.4346 178.287 88.3379 177.883 88.3379C177.473 88.3379 177.159 88.4316 176.942 88.6191C176.726 88.8066 176.617 89.0146 176.617 89.2432C176.617 89.4834 176.726 89.668 176.942 89.7969C177.159 89.9199 177.426 90.0225 177.742 90.1045C178.064 90.1865 178.41 90.2744 178.779 90.3682C179.148 90.4561 179.491 90.585 179.808 90.7549C180.13 90.9189 180.399 91.1445 180.616 91.4316C180.833 91.7129 180.941 92.0938 180.941 92.5742C180.941 93.2949 180.684 93.8955 180.168 94.376C179.652 94.8506 178.92 95.0879 177.971 95.0879C176.975 95.0879 176.228 94.8535 175.729 94.3848C175.231 93.916 174.959 93.251 174.912 92.3896H176.529ZM184.272 95H182.655V86.8965H184.272V95ZM183.464 85.6396C183.188 85.6396 182.954 85.5459 182.761 85.3584C182.567 85.165 182.471 84.9277 182.471 84.6465C182.471 84.3711 182.567 84.1396 182.761 83.9521C182.954 83.7588 183.188 83.6621 183.464 83.6621C183.739 83.6621 183.974 83.7588 184.167 83.9521C184.36 84.1396 184.457 84.3711 184.457 84.6465C184.457 84.9219 184.36 85.1562 184.167 85.3496C183.974 85.543 183.739 85.6396 183.464 85.6396ZM188.14 95H186.522V83.6621H188.14V95ZM189.484 86.8965H191.198L193.448 92.75L195.698 86.8965H197.412L193.984 95.5361C193.803 95.9932 193.624 96.374 193.448 96.6787C193.278 96.9893 193.091 97.2383 192.886 97.4258C192.687 97.6191 192.464 97.7568 192.218 97.8389C191.972 97.9268 191.693 97.9707 191.383 97.9707C191.312 97.9707 191.245 97.9678 191.181 97.9619C191.122 97.9561 191.063 97.9473 191.005 97.9355C190.946 97.9238 190.891 97.9062 190.838 97.8828V96.5293C191.295 96.5293 191.641 96.4326 191.875 96.2393C192.109 96.0518 192.273 95.8174 192.367 95.5361L192.64 94.7275L189.484 86.8965ZM199.565 94.1035C199.565 94.3789 199.469 94.6133 199.275 94.8066C199.082 94.9941 198.848 95.0879 198.572 95.0879C198.297 95.0879 198.062 94.9941 197.869 94.8066C197.676 94.6133 197.579 94.3789 197.579 94.1035C197.579 93.8281 197.676 93.5938 197.869 93.4004C198.062 93.207 198.297 93.1104 198.572 93.1104C198.848 93.1104 199.082 93.207 199.275 93.4004C199.469 93.5938 199.565 93.8281 199.565 94.1035Z" fill="white"/>
<path fill-rule="evenodd" clip-rule="evenodd" d="M80.9237 6.09016C83.2143 7.08448 84.5752 9.46987 84.2655 11.9477L79.4308 50.625H123.684C125.867 50.625 127.852 51.8876 128.778 53.8641C129.704 55.8406 129.402 58.1743 128.005 59.851L71.7552 127.351C70.1566 129.269 67.4847 129.904 65.1941 128.91C62.9035 127.915 61.5426 125.53 61.8523 123.052L66.687 84.375H22.4339C20.2513 84.375 18.2657 83.1124 17.34 81.1358C16.4142 79.1593 16.7154 76.8257 18.1127 75.1489L74.3627 7.64894C75.9613 5.73062 78.6332 5.09583 80.9237 6.09016ZM34.4435 73.125H73.0589C74.6723 73.125 76.2081 73.8178 77.2758 75.0273C78.3436 76.2369 78.8406 77.8467 78.6405 79.4477L75.3952 105.41L111.674 61.875H73.0589C71.4455 61.875 69.9097 61.1822 68.842 59.9726C67.7742 58.7631 67.2772 57.1532 67.4773 55.5523L70.7226 29.59L34.4435 73.125Z" fill="white"/>
<defs>
<linearGradient id="paint0_linear" x1="0" y1="12.7059" x2="430.09" y2="59.5955" gradientUnits="userSpaceOnUse">
<stop stop-color="#06F1EE"/>
<stop offset="0.571325" stop-color="#0089F4"/>
<stop offset="1" stop-color="#DD81C8"/>
</linearGradient>
</defs>
</svg>
